<svg width="301" height="363" viewBox="0 0 301 363" fill="none"
    xmlns="http://www.w3.org/2000/svg">
    <g clip-path="url(#clip0_1_1003)">
        <g clip-path="url(#clip1_1_1003)">
            <path d="M152.238 226.516L212.651 197.863L196.831 256.249L136.272 285.442L152.238 226.516Z" fill="url(#paint0_linear_1_1003)"/>
            <path d="M152.238 226.516L107.351 197.863L91.532 256.249L136.272 285.442L152.238 226.516Z" fill="url(#paint1_linear_1_1003)"/>
            <path d="M152.327 227.005L212.65 197.863L167.925 168.13L107.351 197.863L152.327 227.005Z" fill="#905DFF"/>
            <path opacity="0.4" d="M167.146 169.039C167.18 169.142 167.307 169.179 167.431 169.118L167.843 168.92L168.148 169.118C168.239 169.179 168.386 169.142 168.475 169.039L172.939 171.951C172.849 172.055 172.85 172.187 172.942 172.246L173.74 172.767C173.831 172.828 173.978 172.791 174.068 172.688L178.531 175.6C178.442 175.704 178.443 175.836 178.534 175.895L179.333 176.416C179.424 176.477 179.571 176.44 179.66 176.337L184.124 179.249C184.034 179.353 184.035 179.485 184.127 179.544L184.925 180.065C185.016 180.126 185.163 180.089 185.253 179.986L189.716 182.898C189.626 183.002 189.628 183.134 189.719 183.193L190.518 183.715C190.609 183.775 190.756 183.738 190.845 183.636L195.309 186.547C195.219 186.651 195.22 186.783 195.312 186.842L196.11 187.364C196.201 187.424 196.348 187.387 196.437 187.285L200.901 190.196C200.811 190.3 200.813 190.432 200.904 190.492L201.703 191.013C201.794 191.073 201.941 191.037 202.03 190.934L206.494 193.846C206.404 193.949 206.405 194.081 206.497 194.141L207.295 194.662C207.386 194.722 207.533 194.686 207.622 194.583L212.086 197.495C211.996 197.598 211.998 197.73 212.089 197.79L212.393 197.989L212.285 198.385C212.253 198.505 212.328 198.601 212.451 198.601L210.873 204.424C210.75 204.424 210.623 204.52 210.59 204.64L210.308 205.683C210.275 205.803 210.35 205.899 210.473 205.899L208.896 211.722C208.772 211.722 208.645 211.819 208.613 211.939L208.33 212.981C208.298 213.101 208.373 213.197 208.496 213.197L206.918 219.021C206.795 219.021 206.668 219.117 206.635 219.237L206.353 220.279C206.321 220.399 206.395 220.495 206.519 220.495L204.941 226.319C204.817 226.319 204.691 226.415 204.658 226.535L204.376 227.577C204.343 227.697 204.418 227.794 204.541 227.794L202.963 233.617C202.84 233.617 202.713 233.713 202.681 233.833L202.398 234.876C202.366 234.996 202.44 235.092 202.564 235.092L200.986 240.915C200.863 240.915 200.736 241.012 200.703 241.132L200.421 242.174C200.388 242.294 200.463 242.39 200.586 242.39L199.008 248.214C198.885 248.214 198.758 248.31 198.726 248.43L198.443 249.472C198.411 249.592 198.486 249.688 198.609 249.688L197.031 255.512C196.908 255.512 196.781 255.608 196.748 255.728L196.641 256.124L196.23 256.323C196.106 256.382 196.034 256.514 196.067 256.618L190.026 259.53C189.992 259.427 189.865 259.39 189.741 259.451L188.66 259.972C188.536 260.031 188.464 260.163 188.497 260.267L182.456 263.179C182.422 263.076 182.295 263.039 182.171 263.1L181.09 263.621C180.966 263.681 180.894 263.812 180.927 263.916L174.886 266.828C174.852 266.725 174.725 266.688 174.601 266.749L173.52 267.27C173.397 267.33 173.324 267.462 173.357 267.565L167.316 270.477C167.282 270.374 167.155 270.338 167.031 270.398L165.95 270.919C165.827 270.979 165.754 271.111 165.787 271.214L159.746 274.126C159.712 274.023 159.585 273.987 159.461 274.047L158.38 274.568C158.257 274.628 158.184 274.76 158.218 274.864L152.176 277.775C152.142 277.673 152.015 277.636 151.892 277.696L150.81 278.218C150.687 278.277 150.614 278.409 150.648 278.513L144.606 281.424C144.572 281.322 144.446 281.285 144.322 281.346L143.241 281.867C143.117 281.926 143.044 282.058 143.078 282.162L137.036 285.074C137.002 284.971 136.876 284.934 136.752 284.995L136.34 285.192L136.035 284.995C135.944 284.934 135.797 284.971 135.708 285.074L131.244 282.162C131.334 282.058 131.332 281.926 131.241 281.867L130.442 281.346C130.351 281.285 130.205 281.322 130.115 281.424L125.651 278.513C125.741 278.409 125.74 278.277 125.648 278.218L124.85 277.696C124.759 277.636 124.612 277.673 124.523 277.775L120.059 274.864C120.149 274.76 120.147 274.628 120.056 274.568L119.257 274.047C119.166 273.987 119.02 274.023 118.93 274.126L114.466 271.214C114.556 271.111 114.555 270.979 114.463 270.919L113.665 270.398C113.574 270.338 113.427 270.374 113.338 270.477L108.874 267.565C108.964 267.462 108.962 267.33 108.871 267.27L108.072 266.749C107.981 266.688 107.835 266.725 107.745 266.828L103.281 263.916C103.371 263.812 103.37 263.681 103.278 263.621L102.48 263.1C102.389 263.039 102.242 263.076 102.153 263.179L97.6889 260.267C97.7786 260.163 97.7774 260.031 97.686 259.972L96.8873 259.451C96.7962 259.39 96.6496 259.427 96.5601 259.53L92.0964 256.618C92.1861 256.514 92.1849 256.382 92.0935 256.323L91.79 256.124L91.8973 255.728C91.9298 255.608 91.855 255.512 91.7318 255.512L93.3096 249.688C93.4329 249.688 93.5598 249.592 93.5923 249.472L93.8747 248.43C93.9072 248.31 93.8325 248.214 93.7092 248.214L95.2871 242.39C95.4103 242.39 95.5372 242.294 95.5697 242.174L95.8521 241.132C95.8846 241.012 95.8099 240.915 95.6866 240.915L97.2645 235.092C97.3877 235.092 97.5146 234.996 97.5471 234.876L97.8295 233.833C97.862 233.713 97.7873 233.617 97.6641 233.617L99.2419 227.794C99.3651 227.794 99.492 227.697 99.5245 227.577L99.8069 226.535C99.8394 226.415 99.7647 226.319 99.6415 226.319L101.219 220.495C101.343 220.495 101.469 220.399 101.502 220.279L101.784 219.237C101.817 219.117 101.742 219.021 101.619 219.021L103.197 213.197C103.32 213.197 103.447 213.101 103.479 212.981L103.762 211.939C103.794 211.819 103.72 211.722 103.596 211.722L105.174 205.899C105.297 205.899 105.424 205.803 105.457 205.683L105.739 204.64C105.772 204.52 105.697 204.424 105.574 204.424L107.152 198.601C107.275 198.601 107.402 198.505 107.434 198.385L107.541 197.989L107.953 197.79C108.076 197.73 108.149 197.598 108.116 197.495L114.157 194.583C114.191 194.686 114.318 194.722 114.442 194.662L115.523 194.141C115.646 194.081 115.719 193.949 115.685 193.846L121.727 190.934C121.761 191.037 121.887 191.073 122.011 191.013L123.092 190.492C123.216 190.432 123.289 190.3 123.255 190.196L129.297 187.285C129.331 187.387 129.457 187.424 129.581 187.364L130.662 186.842C130.786 186.783 130.859 186.651 130.825 186.547L136.867 183.636C136.901 183.738 137.027 183.775 137.151 183.715L138.232 183.193C138.356 183.134 138.429 183.002 138.395 182.898L144.437 179.986C144.471 180.089 144.597 180.126 144.721 180.065L145.802 179.544C145.926 179.485 145.999 179.353 145.965 179.249L152.007 176.337C152.04 176.44 152.167 176.477 152.291 176.416L153.372 175.895C153.496 175.836 153.568 175.704 153.535 175.6L159.577 172.688C159.61 172.791 159.737 172.828 159.861 172.767L160.942 172.246C161.066 172.187 161.138 172.055 161.105 171.951L167.146 169.039Z" stroke="#7A42F4" stroke-width="0.448082" stroke-linecap="round" stroke-linejoin="round" stroke-dasharray="1.12 6.72"/>
            <path d="M197.309 57.6752C197.342 57.779 197.469 57.8152 197.592 57.7562L198.017 57.5535L198.332 57.7562C198.423 57.8152 198.57 57.779 198.658 57.6752L203.232 60.6245C203.142 60.7283 203.144 60.8603 203.236 60.9193L204.053 61.4465C204.144 61.5055 204.291 61.4692 204.38 61.3654L208.953 64.3147C208.863 64.4185 208.866 64.5505 208.957 64.6095L209.774 65.1367C209.866 65.1957 210.012 65.1595 210.101 65.0557L214.674 68.0049C214.585 68.1088 214.587 68.2408 214.679 68.2998L215.496 68.827C215.587 68.8861 215.734 68.8497 215.822 68.7459L220.396 71.6952C220.306 71.799 220.308 71.931 220.4 71.99L221.217 72.5172C221.309 72.5763 221.455 72.54 221.544 72.4361L226.117 75.3854C226.027 75.4892 226.03 75.6213 226.121 75.6803L226.938 76.2074C227.03 76.2666 227.176 76.2303 227.265 76.1265L231.839 79.0757C231.749 79.1795 231.751 79.3115 231.843 79.3706L232.66 79.8978C232.751 79.9568 232.898 79.9205 232.986 79.8167L237.56 82.7659C237.47 82.8697 237.472 83.0017 237.564 83.0609L238.381 83.588C238.473 83.647 238.619 83.6108 238.708 83.507L243.281 86.4562C243.192 86.56 243.194 86.692 243.285 86.7511L244.103 87.2783C244.194 87.3373 244.341 87.301 244.429 87.1972L249.003 90.1464C248.913 90.2502 248.915 90.3822 249.007 90.4413L249.824 90.9685C249.915 91.0275 250.062 90.9913 250.151 90.8875L254.724 93.8368C254.634 93.9405 254.637 94.0726 254.728 94.1316L255.545 94.6588C255.637 94.7178 255.783 94.6815 255.872 94.5777L260.445 97.527C260.356 97.6307 260.358 97.7628 260.45 97.8218L261.267 98.349C261.358 98.408 261.505 98.3718 261.593 98.268L266.167 101.217C266.077 101.321 266.079 101.453 266.171 101.512L266.988 102.039C267.08 102.098 267.226 102.062 267.315 101.958L271.888 104.907C271.798 105.011 271.801 105.143 271.892 105.202L272.709 105.73C272.801 105.789 272.947 105.752 273.036 105.648L277.61 108.598C277.52 108.702 277.522 108.833 277.614 108.893L278.431 109.42C278.522 109.479 278.669 109.442 278.758 109.338L283.331 112.288C283.241 112.392 283.243 112.524 283.335 112.583L284.152 113.11C284.244 113.169 284.39 113.132 284.479 113.029L289.052 115.978C288.963 116.082 288.965 116.214 289.056 116.273L289.874 116.8C289.965 116.859 290.112 116.823 290.2 116.719L294.774 119.668C294.684 119.772 294.686 119.904 294.778 119.964L295.595 120.49C295.686 120.55 295.833 120.513 295.922 120.409L300.495 123.359C300.405 123.462 300.408 123.594 300.499 123.654L301.316 124.18C301.408 124.24 301.554 124.203 301.643 124.099L306.216 127.049C306.127 127.153 306.129 127.285 306.22 127.344L307.038 127.871C307.129 127.93 307.276 127.894 307.364 127.791L311.938 130.739C311.848 130.843 311.85 130.975 311.942 131.034L312.759 131.561C312.851 131.62 312.997 131.585 313.086 131.481L317.659 134.429C317.569 134.533 317.572 134.665 317.663 134.724L318.48 135.252C318.572 135.31 318.718 135.275 318.807 135.171L323.381 138.119C323.291 138.223 323.293 138.355 323.385 138.415L324.202 138.942C324.293 139.001 324.44 138.965 324.528 138.861L329.102 141.81C329.012 141.913 329.015 142.045 329.106 142.105L329.418 142.306L329.302 142.732C329.27 142.851 329.345 142.948 329.468 142.948L327.793 149.13C327.67 149.13 327.543 149.226 327.51 149.346L327.212 150.448C327.179 150.568 327.254 150.664 327.377 150.664L325.703 156.845C325.579 156.845 325.452 156.942 325.42 157.061L325.121 158.164C325.089 158.283 325.164 158.379 325.287 158.379L323.612 164.561C323.489 164.561 323.362 164.658 323.329 164.777L323.031 165.88C322.998 165.999 323.073 166.096 323.196 166.096L321.521 172.277C321.398 172.277 321.271 172.374 321.239 172.494L320.94 173.595C320.908 173.715 320.982 173.812 321.106 173.812L319.431 179.993C319.308 179.993 319.18 180.09 319.148 180.209L318.849 181.312C318.817 181.431 318.892 181.528 319.015 181.528L317.34 187.709C317.217 187.709 317.09 187.806 317.058 187.925L316.759 189.028C316.727 189.147 316.801 189.244 316.924 189.244L315.249 195.425C315.126 195.425 314.999 195.521 314.967 195.641L314.668 196.743C314.636 196.863 314.711 196.959 314.834 196.959L313.159 203.141C313.036 203.141 312.909 203.238 312.876 203.357L312.578 204.46C312.545 204.579 312.62 204.676 312.743 204.676L311.068 210.857C310.945 210.857 310.818 210.954 310.786 211.074L310.487 212.175C310.455 212.294 310.529 212.392 310.653 212.392L308.978 218.573C308.854 218.573 308.728 218.669 308.695 218.789L308.397 219.891C308.364 220.011 308.439 220.107 308.562 220.107L306.887 226.289C306.764 226.289 306.637 226.386 306.605 226.505L306.306 227.608C306.274 227.727 306.348 227.824 306.471 227.824L304.796 234.005C304.673 234.005 304.546 234.102 304.514 234.222L304.215 235.323C304.183 235.443 304.258 235.54 304.381 235.54L302.706 241.721C302.583 241.721 302.456 241.818 302.423 241.937L302.125 243.039C302.092 243.159 302.167 243.255 302.29 243.255L300.615 249.437C300.492 249.437 300.365 249.534 300.333 249.653L300.034 250.756C300.002 250.875 300.076 250.972 300.199 250.972L298.525 257.153C298.401 257.153 298.275 257.249 298.242 257.369L297.943 258.471C297.911 258.591 297.986 258.687 298.109 258.687L296.434 264.869C296.311 264.869 296.184 264.966 296.152 265.085L295.853 266.188C295.82 266.307 295.895 266.404 296.018 266.404L294.344 272.584C294.22 272.584 294.093 272.682 294.061 272.801L293.762 273.903C293.73 274.022 293.804 274.12 293.928 274.12L292.253 280.301C292.13 280.301 292.003 280.397 291.97 280.517L291.672 281.619C291.639 281.739 291.714 281.835 291.837 281.835L290.162 288.017C290.039 288.017 289.912 288.114 289.88 288.233L289.581 289.336C289.549 289.455 289.623 289.552 289.746 289.552L288.072 295.733C287.948 295.733 287.821 295.83 287.789 295.95L287.49 297.051C287.458 297.17 287.533 297.268 287.656 297.268L285.981 303.449C285.858 303.449 285.731 303.545 285.698 303.665L285.4 304.767C285.367 304.887 285.442 304.983 285.565 304.983L283.891 311.164C283.767 311.164 283.64 311.262 283.608 311.381L283.493 311.807L283.072 312.008C282.948 312.067 282.874 312.199 282.908 312.303L276.736 315.251C276.704 315.148 276.577 315.112 276.454 315.17L275.351 315.698C275.227 315.758 275.153 315.889 275.187 315.993L269.015 318.942C268.983 318.838 268.856 318.802 268.733 318.861L267.63 319.388C267.506 319.448 267.432 319.58 267.466 319.683L261.294 322.632C261.262 322.528 261.135 322.492 261.011 322.552L259.909 323.078C259.785 323.138 259.711 323.27 259.745 323.374L253.573 326.323C253.54 326.219 253.414 326.183 253.29 326.242L252.187 326.769C252.064 326.828 251.99 326.96 252.023 327.064L245.852 330.013C245.819 329.91 245.693 329.873 245.569 329.932L244.466 330.459C244.343 330.518 244.269 330.65 244.302 330.754L238.131 333.704C238.098 333.6 237.972 333.563 237.848 333.623L236.745 334.149C236.622 334.209 236.548 334.34 236.581 334.444L230.41 337.394C230.377 337.29 230.251 337.253 230.127 337.313L229.024 337.839C228.901 337.899 228.827 338.031 228.86 338.134L222.689 341.084C222.656 340.98 222.53 340.943 222.406 341.003L221.303 341.529C221.18 341.589 221.106 341.721 221.139 341.825L214.968 344.774C214.935 344.67 214.808 344.634 214.685 344.693L213.582 345.22C213.458 345.279 213.385 345.411 213.418 345.515L207.246 348.464C207.214 348.361 207.087 348.324 206.964 348.383L205.861 348.91C205.737 348.969 205.664 349.101 205.697 349.205L199.525 352.155C199.493 352.051 199.366 352.014 199.243 352.074L198.14 352.6C198.016 352.66 197.943 352.791 197.976 352.895L191.804 355.845C191.772 355.741 191.645 355.704 191.522 355.764L190.419 356.29C190.295 356.35 190.221 356.482 190.255 356.585L184.083 359.535C184.051 359.431 183.924 359.394 183.801 359.454L182.698 359.982C182.574 360.04 182.5 360.172 182.534 360.276L176.362 363.225C176.33 363.121 176.203 363.085 176.079 363.144L174.976 363.672C174.853 363.73 174.779 363.862 174.813 363.966L168.641 366.915C168.609 366.812 168.482 366.775 168.358 366.834L167.255 367.362C167.132 367.42 167.058 367.552 167.092 367.656L160.92 370.606C160.888 370.502 160.761 370.465 160.637 370.525L159.534 371.052C159.411 371.111 159.337 371.242 159.371 371.346L153.199 374.296C153.167 374.192 153.04 374.155 152.916 374.215L151.813 374.742C151.69 374.801 151.616 374.933 151.65 375.037L145.478 377.986C145.446 377.882 145.319 377.847 145.195 377.905L144.092 378.433C143.969 378.491 143.895 378.623 143.928 378.727L137.757 381.676C137.724 381.572 137.597 381.537 137.474 381.595L136.371 382.123C136.248 382.181 136.174 382.313 136.207 382.418L130.036 385.366C130.003 385.263 129.876 385.227 129.753 385.285L128.65 385.813C128.527 385.871 128.453 386.004 128.486 386.108L122.315 389.057C122.282 388.953 122.155 388.917 122.032 388.976L120.929 389.503C120.806 389.562 120.732 389.695 120.765 389.798L114.594 392.747C114.561 392.643 114.434 392.607 114.311 392.666L113.208 393.193C113.084 393.253 113.01 393.385 113.044 393.489L106.873 396.437C106.84 396.333 106.713 396.298 106.59 396.356L106.165 396.559L105.85 396.356C105.759 396.298 105.612 396.333 105.524 396.437L100.95 393.489C101.04 393.385 101.038 393.253 100.946 393.193L100.129 392.666C100.037 392.607 99.8911 392.643 99.8024 392.747L95.2288 389.798C95.3186 389.695 95.3165 389.562 95.2248 389.503L94.4077 388.976C94.316 388.917 94.1697 388.953 94.081 389.057L89.5074 386.108C89.5972 386.004 89.5951 385.871 89.5034 385.813L88.6863 385.285C88.5946 385.227 88.4483 385.263 88.3597 385.366L83.786 382.418C83.8758 382.314 83.8737 382.181 83.782 382.123L82.9649 381.595C82.8732 381.537 82.7269 381.572 82.6383 381.676L78.0649 378.727C78.1547 378.623 78.1523 378.491 78.0606 378.433L77.2436 377.905C77.1518 377.847 77.0055 377.882 76.9169 377.986L72.3436 375.037C72.4333 374.933 72.4309 374.801 72.3392 374.742L71.5222 374.215C71.4307 374.155 71.2841 374.192 71.1955 374.296L66.6222 371.346C66.7119 371.242 66.7096 371.111 66.6178 371.052L65.8008 370.525C65.7094 370.465 65.5627 370.502 65.4741 370.606L60.9008 367.656C60.9905 367.552 60.9882 367.42 60.8964 367.362L60.0794 366.834C59.988 366.775 59.8413 366.812 59.7527 366.915L55.1794 363.966C55.2691 363.862 55.2668 363.73 55.1751 363.672L54.358 363.144C54.2666 363.085 54.1199 363.121 54.0313 363.225L49.458 360.276C49.5477 360.172 49.5454 360.04 49.4537 359.982L48.6366 359.454C48.5452 359.394 48.3986 359.431 48.3099 359.535L43.7366 356.585C43.8264 356.482 43.824 356.35 43.7326 356.29L42.9152 355.764C42.8238 355.704 42.6772 355.741 42.5886 355.845L38.0152 352.895C38.105 352.791 38.1026 352.66 38.0112 352.6L37.1938 352.074C37.1024 352.014 36.9558 352.051 36.8672 352.155L32.2939 349.205C32.3836 349.101 32.3812 348.969 32.2898 348.91L31.4725 348.383C31.381 348.324 31.2344 348.361 31.1458 348.464L26.5725 345.515C26.6622 345.411 26.6599 345.279 26.5684 345.22L25.7511 344.693C25.6596 344.634 25.513 344.67 25.4244 344.774L20.8511 341.825C20.9408 341.721 20.9385 341.589 20.847 341.529L20.0297 341.003C19.9383 340.943 19.7916 340.98 19.703 341.084L15.1297 338.134C15.2194 338.031 15.2171 337.899 15.1256 337.839L14.3083 337.313C14.2169 337.253 14.0702 337.29 13.9816 337.394L9.40829 334.444C9.49803 334.34 9.49569 334.209 9.40426 334.149L8.58691 333.623C8.49548 333.563 8.34887 333.6 8.26025 333.704L3.68691 330.754C3.77665 330.65 3.7743 330.518 3.68287 330.459L2.86552 329.932C2.77409 329.873 2.62748 329.91 2.53886 330.013L-2.03402 327.064C-1.94474 326.96 -1.94653 326.828 -2.03795 326.769L-2.85552 326.242C-2.94695 326.183 -3.09369 326.219 -3.18298 326.323L-7.75541 323.374C-7.66613 323.27 -7.66792 323.138 -7.75934 323.078L-8.57691 322.552C-8.66834 322.492 -8.81479 322.528 -8.90407 322.632L-13.4768 319.683C-13.3875 319.58 -13.3893 319.448 -13.4807 319.388L-14.298 318.861C-14.3897 318.802 -14.5362 318.838 -14.6255 318.942L-19.1982 315.993C-19.1089 315.889 -19.1107 315.758 -19.2021 315.698L-20.0194 315.17C-20.1111 315.112 -20.2576 315.148 -20.3469 315.251L-24.9196 312.303C-24.8303 312.199 -24.8321 312.067 -24.9235 312.008L-25.2359 311.807L-25.1205 311.381C-25.0882 311.262 -25.1621 311.164 -25.2859 311.164L-23.6111 304.983C-23.4873 304.983 -23.361 304.887 -23.3285 304.767L-23.03 303.665C-22.9974 303.545 -23.0716 303.449 -23.1954 303.449L-21.5206 297.268C-21.3968 297.268 -21.2702 297.17 -21.238 297.051L-20.9395 295.95C-20.9069 295.83 -20.9811 295.733 -21.1049 295.733L-19.4301 289.552C-19.3063 289.552 -19.1797 289.455 -19.1475 289.336L-18.8487 288.233C-18.8165 288.114 -18.8903 288.017 -19.0141 288.017L-17.3393 281.835C-17.2155 281.835 -17.0892 281.739 -17.0567 281.619L-16.7582 280.517C-16.7257 280.397 -16.7998 280.301 -16.9236 280.301L-15.2488 274.12C-15.125 274.12 -14.9984 274.022 -14.9662 273.903L-14.6674 272.801C-14.6352 272.682 -14.7091 272.584 -14.8328 272.584L-13.1583 266.404C-13.0346 266.404 -12.9079 266.307 -12.8757 266.188L-12.5769 265.085C-12.5447 264.966 -12.6186 264.869 -12.7423 264.869L-11.0675 258.687C-10.9438 258.687 -10.8174 258.591 -10.7849 258.471L-10.4864 257.369C-10.4539 257.249 -10.5281 257.153 -10.6518 257.153L-8.97705 250.972C-8.85327 250.972 -8.72665 250.875 -8.69442 250.756L-8.39561 249.653C-8.36339 249.534 -8.43728 249.437 -8.56106 249.437L-6.88626 243.255C-6.76248 243.255 -6.63615 243.159 -6.60363 243.039L-6.30511 241.937C-6.27289 241.818 -6.34678 241.721 -6.47056 241.721L-4.79576 235.54C-4.67198 235.54 -4.54565 235.443 -4.51313 235.323L-4.21462 234.222C-4.1821 234.102 -4.25628 234.005 -4.38007 234.005L-2.70527 227.824C-2.58149 227.824 -2.45486 227.727 -2.42264 227.608L-2.12383 226.505C-2.09161 226.386 -2.16549 226.289 -2.28927 226.289L-0.614476 220.107C-0.490693 220.107 -0.364367 220.011 -0.331849 219.891L-0.0333332 218.789C-0.000815643 218.669 -0.0749988 218.573 -0.198781 218.573L1.47602 212.392C1.5998 212.392 1.72642 212.294 1.75865 212.175L2.05716 211.074C2.08968 210.954 2.0155 210.857 1.89172 210.857L3.56652 204.676C3.6903 204.676 3.81692 204.579 3.84914 204.46L4.14796 203.357C4.18018 203.238 4.10629 203.141 3.98251 203.141L5.65731 196.959C5.78109 196.959 5.90742 196.863 5.93993 196.743L6.23845 195.641C6.27097 195.521 6.19679 195.425 6.073 195.425L7.7478 189.244C7.87159 189.244 7.99821 189.147 8.03043 189.028L8.32924 187.925C8.36147 187.806 8.28757 187.709 8.16379 187.709L9.8383 181.528C9.96208 181.528 10.0887 181.431 10.1209 181.312L10.4197 180.209C10.452 180.09 10.3781 179.993 10.2543 179.993L11.9291 173.812C12.0529 173.812 12.1792 173.715 12.2117 173.595L12.5102 172.494C12.5428 172.374 12.4686 172.277 12.3448 172.277L14.0196 166.096C14.1434 166.096 14.27 165.999 14.3022 165.88L14.601 164.777C14.6332 164.658 14.5594 164.561 14.4356 164.561L16.1104 158.379C16.2342 158.379 16.3605 158.283 16.393 158.163L16.6915 157.061C16.7237 156.942 16.6499 156.845 16.5261 156.845L18.2009 150.664C18.3247 150.664 18.451 150.568 18.4835 150.448L18.782 149.346C18.8145 149.226 18.7404 149.13 18.6166 149.13L20.2914 142.948C20.4151 142.948 20.5418 142.851 20.574 142.732L20.6894 142.306L21.1107 142.105C21.2344 142.045 21.3077 141.913 21.2747 141.81L27.4451 138.861C27.4782 138.965 27.6053 139.001 27.7286 138.942L28.8317 138.415C28.9555 138.355 29.0288 138.223 28.9957 138.119L35.1662 135.171C35.1992 135.275 35.3264 135.31 35.4497 135.252L36.5528 134.724C36.6766 134.665 36.7498 134.533 36.7168 134.429L42.8873 131.481C42.9203 131.585 43.0474 131.62 43.1708 131.562L44.2739 131.034C44.3976 130.975 44.4709 130.843 44.4379 130.739L50.6083 127.791C50.6414 127.894 50.7685 127.93 50.8922 127.871L51.9949 127.344C52.1187 127.285 52.192 127.153 52.1589 127.049L58.3302 124.099C58.3625 124.203 58.4892 124.24 58.6129 124.18L59.7156 123.654C59.8392 123.594 59.913 123.462 59.8795 123.359L66.0512 120.409C66.0836 120.513 66.2103 120.55 66.3339 120.49L67.4366 119.964C67.5603 119.904 67.6341 119.772 67.6006 119.668L73.7723 116.719C73.8047 116.823 73.9314 116.859 74.055 116.8L75.1577 116.273C75.2814 116.214 75.3552 116.082 75.3217 115.978L81.4934 113.029C81.5257 113.132 81.6524 113.169 81.7761 113.11L82.8788 112.583C83.0024 112.524 83.0762 112.392 83.0428 112.288L89.2144 109.338C89.2468 109.442 89.3735 109.479 89.4972 109.42L90.5998 108.893C90.7235 108.833 90.7973 108.702 90.7638 108.598L96.9354 105.648C96.9678 105.752 97.0946 105.789 97.2182 105.73L98.321 105.202C98.4446 105.143 98.5184 105.011 98.4849 104.907L104.657 101.958C104.689 102.062 104.816 102.098 104.939 102.039L106.042 101.512C106.166 101.453 106.239 101.321 106.206 101.217L112.378 98.268C112.41 98.3718 112.537 98.408 112.66 98.349L113.763 97.8218C113.887 97.7628 113.961 97.6307 113.927 97.527L120.099 94.5777C120.131 94.6815 120.258 94.7178 120.381 94.6588L121.484 94.1316C121.608 94.0726 121.682 93.9405 121.648 93.8368L127.82 90.8875C127.852 90.9913 127.979 91.0275 128.102 90.9685L129.205 90.4413C129.329 90.3822 129.403 90.2502 129.369 90.1464L135.541 87.1972C135.573 87.301 135.7 87.3373 135.824 87.2783L136.926 86.7511C137.05 86.692 137.124 86.56 137.09 86.4562L143.262 83.507C143.294 83.6108 143.421 83.6471 143.545 83.588L144.647 83.0609C144.771 83.0017 144.845 82.8697 144.811 82.7659L150.983 79.8167C151.015 79.9206 151.142 79.9568 151.266 79.8978L152.369 79.3706C152.492 79.3115 152.566 79.1795 152.533 79.0757L158.704 76.1265C158.736 76.2303 158.863 76.2666 158.987 76.2074L160.09 75.6803C160.213 75.6213 160.287 75.4893 160.254 75.3854L166.425 72.4363C166.458 72.5401 166.584 72.5763 166.708 72.5172L167.811 71.99C167.934 71.931 168.008 71.799 167.975 71.6952L174.146 68.7459C174.179 68.8497 174.305 68.8861 174.429 68.827L175.532 68.2998C175.655 68.2408 175.729 68.1088 175.696 68.005L181.867 65.0557C181.9 65.1595 182.027 65.1957 182.15 65.1367L183.253 64.6095C183.376 64.5505 183.45 64.4185 183.417 64.3147L189.588 61.3654C189.621 61.4692 189.748 61.5055 189.871 61.4465L190.974 60.9193C191.098 60.8603 191.171 60.7283 191.138 60.6245L197.309 57.6752Z" stroke="#7A42F4" stroke-width="0.448082" stroke-linecap="round" stroke-linejoin="round" stroke-dasharray="1.12 6.72"/>
            <path opacity="0.6" d="M-71.3896 227.057C-39.112 107.927 87.1099 11.353 210.535 11.353C333.96 11.353 407.85 107.927 375.572 227.057C343.294 346.187 217.073 442.76 93.6475 442.76C-29.7775 442.76 -103.667 346.187 -71.3896 227.057Z" stroke="#7A42F4" stroke-width="1.1202"/>
            <path opacity="0.6" d="M387.11 227.056C421.054 101.776 343.35 0.216309 213.552 0.216309C83.7549 0.216309 -48.9837 101.776 -82.9277 227.056C-116.872 352.337 -39.1672 453.896 90.6301 453.896C220.427 453.896 353.166 352.337 387.11 227.056Z" stroke="#7A42F4" stroke-width="0.448082"/>
            <path opacity="0.6" d="M210.681 10.8123L93.7941 442.219" stroke="#7A42F4" stroke-width="0.448082"/>
            <path opacity="0.3" d="M167.497 168.13C167.578 167.832 167.894 167.589 168.203 167.589C168.513 167.589 168.698 167.832 168.617 168.13C168.536 168.428 168.22 168.671 167.91 168.671C167.601 168.671 167.416 168.428 167.497 168.13Z" fill="#7A42F4"/>
            <path opacity="0.3" d="M107.205 198.404C106.896 198.404 106.711 198.162 106.791 197.863C106.872 197.565 107.189 197.323 107.498 197.323C107.807 197.323 107.992 197.565 107.912 197.863C107.831 198.162 107.514 198.404 107.205 198.404Z" fill="#7A42F4"/>
            <path opacity="0.3" d="M91.3854 256.79C91.0763 256.79 90.891 256.548 90.9718 256.249C91.0527 255.951 91.3692 255.708 91.6784 255.708C91.9876 255.708 92.1729 255.951 92.092 256.249C92.0112 256.548 91.6946 256.79 91.3854 256.79Z" fill="#7A42F4"/>
            <path opacity="0.3" d="M153.212 227.056C153.373 226.459 153.003 225.975 152.384 225.975C151.766 225.975 151.133 226.459 150.971 227.056C150.809 227.653 151.18 228.138 151.798 228.138C152.417 228.138 153.05 227.653 153.212 227.056Z" fill="#7A42F4"/>
            <path opacity="0.3" d="M135.712 285.442C135.792 285.144 136.109 284.902 136.418 284.902C136.727 284.902 136.913 285.144 136.832 285.442C136.751 285.741 136.434 285.983 136.125 285.983C135.816 285.983 135.631 285.741 135.712 285.442Z" fill="#7A42F4"/>
            <path opacity="0.3" d="M212.504 198.404C212.195 198.404 212.009 198.162 212.09 197.863C212.171 197.565 212.487 197.323 212.797 197.323C213.106 197.323 213.291 197.565 213.21 197.863C213.129 198.162 212.813 198.404 212.504 198.404Z" fill="#7A42F4"/>
            <path opacity="0.3" d="M196.618 256.874C196.284 256.874 196.085 256.612 196.172 256.291C196.259 255.969 196.6 255.708 196.934 255.708C197.268 255.708 197.467 255.969 197.38 256.291C197.293 256.612 196.952 256.874 196.618 256.874Z" fill="#7A42F4"/>
            <path opacity="0.3" d="M254.03 227.056H370.531" stroke="#7A42F4" stroke-width="1.1202"/>
            <path opacity="0.3" d="M121.624 339.503L94.9656 437.895" stroke="#7A42F4" stroke-width="1.1202"/>
            <path opacity="0.3" d="M48.1694 306.568L-42.7627 376.142" stroke="#7A42F4" stroke-width="1.1202"/>
            <path opacity="0.3" d="M212.927 306.568L266.158 376.142" stroke="#7A42F4" stroke-width="1.1202"/>
            <path opacity="0.3" d="M50.1526 227.056H-66.3487" stroke="#7A42F4" stroke-width="1.1202"/>
            <path opacity="0.3" d="M182.558 114.609L209.217 16.2183" stroke="#7A42F4" stroke-width="1.1202"/>
            <path opacity="0.3" d="M256.013 147.545L346.945 77.9714" stroke="#7A42F4" stroke-width="1.1202"/>
            <path opacity="0.3" d="M91.2556 147.545L38.0245 77.9714" stroke="#7A42F4" stroke-width="1.1202"/>
            <path opacity="0.3" d="M263.552 227.056C279.65 167.641 242.798 119.475 181.24 119.475C119.682 119.475 56.7294 167.641 40.6311 227.056C24.5327 286.472 61.385 334.638 122.943 334.638C184.501 334.638 247.453 286.472 263.552 227.056Z" stroke="#7A42F4" stroke-width="1.1202"/>
            <path opacity="0.3" d="M274.753 227.057C292.47 161.669 251.914 108.663 184.169 108.663C116.425 108.663 47.1449 161.669 29.4286 227.057C11.7124 292.444 52.2683 345.45 120.013 345.45C187.757 345.45 257.037 292.444 274.753 227.057Z" stroke="#7A42F4" stroke-width="1.1202"/>
            <path opacity="0.3" d="M34.8882 74.6041L-71.9498 227.056L-47.7239 379.508L93.7939 442.219L269.294 379.508L376.132 227.056L351.906 74.6041L210.388 11.8933L34.8882 74.6041Z" stroke="#7A42F4" stroke-width="1.1202"/>
        </g>
    </g>
    <defs>
        <linearGradient id="paint0_linear_1_1003" x1="186.326" y1="197.863" x2="186.326" y2="285.442" gradientUnits="userSpaceOnUse">
            <stop stop-color="#9361FF"/>
            <stop offset="1" stop-color="#7A42F4" stop-opacity="0.25"/>
        </linearGradient>
        <linearGradient id="paint1_linear_1_1003" x1="133.676" y1="197.863" x2="133.676" y2="285.442" gradientUnits="userSpaceOnUse">
            <stop stop-color="#622DD6"/>
            <stop offset="1" stop-color="#7A42F4" stop-opacity="0.13"/>
        </linearGradient>
        <clipPath id="clip0_1_1003">
            <rect width="414.476" height="438" fill="white" transform="translate(-55.2379)"/>
        </clipPath>
        <clipPath id="clip1_1_1003">
            <rect width="470.486" height="470.486" fill="white" transform="matrix(1 0 -0.261515 0.965199 -21.6318 0)"/>
        </clipPath>
    </defs>
</svg>
