<svg width="298" height="353" viewBox="0 0 298 353" fill="none"
    xmlns="http://www.w3.org/2000/svg">
    <g clip-path="url(#clip0_1_1043)">
        <g clip-path="url(#clip1_1_1043)">
            <path opacity="0.9" d="M72.6356 183.87C59.5992 135.755 89.4422 96.7507 139.292 96.7507C189.141 96.7507 240.121 135.755 253.157 183.87C266.193 231.985 236.351 270.99 186.501 270.99C136.651 270.99 85.6721 231.985 72.6356 183.87Z" stroke="#38DBFF" stroke-width="0.907143"/>
            <path d="M113.911 183.871C106.836 157.758 123.032 136.59 150.086 136.59C177.14 136.59 204.807 157.758 211.882 183.871C218.957 209.983 202.761 231.152 175.707 231.152C148.653 231.152 120.986 209.983 113.911 183.871Z" fill="url(#paint0_linear_1_1043)" stroke="#38DBFF" stroke-width="0.362857" stroke-dasharray="0.91 5.44"/>
            <path opacity="0.2" d="M63.5646 183.87C49.218 130.92 82.0602 87.9951 136.92 87.9951C191.779 87.9951 247.882 130.92 262.229 183.87C276.576 236.821 243.733 279.746 188.874 279.746C134.014 279.746 77.9112 236.821 63.5646 183.87Z" stroke="#38DBFF" stroke-width="0.907143"/>
            <path opacity="0.2" d="M115.725 183.87C108.912 158.725 124.509 138.341 150.561 138.341C176.613 138.341 203.255 158.725 210.068 183.87C216.881 209.016 201.285 229.4 175.233 229.4C149.181 229.4 122.538 209.016 115.725 183.87Z" stroke="#38DBFF" stroke-width="87.0857" stroke-dasharray="0.36 29.03"/>
            <path opacity="0.1" d="M-0.389119 183.87C-23.9726 96.8285 30.0147 26.2671 120.195 26.2671C210.375 26.2671 302.599 96.8285 326.182 183.87C349.766 270.912 295.779 341.474 205.598 341.474C115.418 341.474 23.1944 270.912 -0.389119 183.87Z" stroke="#38DBFF" stroke-width="36.2857" stroke-dasharray="0.36 29.03"/>
            <path opacity="0.3" d="M-18.0785 183.871C-44.2169 87.3991 15.619 9.1936 115.569 9.1936C215.518 9.1936 317.733 87.3991 343.872 183.871C370.01 280.342 310.174 358.547 210.224 358.547C110.275 358.547 8.0599 280.342 -18.0785 183.871Z" stroke="#38DBFF" stroke-width="0.907143"/>
            <path opacity="0.3" d="M-27.422 183.87C-54.9099 82.4183 8.01529 0.175049 113.125 0.175049C218.235 0.175049 325.727 82.4183 353.215 183.87C380.703 285.323 317.778 367.566 212.668 367.566C107.558 367.566 0.0659294 285.323 -27.422 183.87Z" stroke="#38DBFF" stroke-width="0.362857"/>
            <path d="M115.569 9.1936L136.92 87.9952" stroke="url(#paint1_linear_1_1043)" stroke-width="0.907143" stroke-dasharray="0.91 5.44"/>
            <path d="M115.569 9.1936L136.92 87.9952" stroke="url(#paint2_linear_1_1043)" stroke-width="0.907143" stroke-dasharray="0.91 5.44"/>
            <path d="M-18.532 183.87H63.1108" stroke="url(#paint3_linear_1_1043)" stroke-width="0.907143" stroke-dasharray="0.91 5.44"/>
            <path d="M-18.532 183.87H63.1108" stroke="url(#paint4_linear_1_1043)" stroke-width="0.907143" stroke-dasharray="0.91 5.44"/>
            <path d="M344.325 183.87H262.682" stroke="url(#paint5_linear_1_1043)" stroke-width="0.907143" stroke-dasharray="0.91 5.44"/>
            <path d="M210.343 358.985L188.992 280.183" stroke="url(#paint6_linear_1_1043)" stroke-width="0.907143" stroke-dasharray="0.91 5.44"/>
            <path d="M80.7137 78.9142L115.687 9.6311L188.205 78.9142C253.326 141.131 276.486 226.61 245.079 288.826L210.106 358.109L137.588 288.826C72.4664 226.61 49.3064 141.131 80.7137 78.9142Z" stroke="#38DBFF" stroke-width="0.907143" stroke-dasharray="0.91 5.44"/>
            <path d="M257.582 131.995L343.418 183.87L285.692 235.745C233.854 282.33 145.294 282.33 68.2119 235.745L-17.6247 183.87L40.1014 131.995C91.9392 85.4104 180.5 85.4105 257.582 131.995Z" stroke="#38DBFF" stroke-width="0.907143" stroke-dasharray="0.91 5.44"/>
            <path opacity="0.2" d="M287.961 221.405L323.927 307.076L231.831 294.767C149.127 283.713 70.1296 223.271 37.8319 146.336L1.86702 60.6648L93.9624 72.974C176.666 84.0278 255.664 144.47 287.961 221.405Z" stroke="#38DBFF" stroke-width="0.907143" stroke-dasharray="0.91 5.44"/>
            <path opacity="0.3" d="M171.737 72.9737L257.163 60.6646L267.622 146.336C277.015 223.271 230.77 283.713 154.056 294.767L68.6309 307.076L58.1713 221.404C48.7789 144.47 95.0235 84.0276 171.737 72.9737Z" stroke="#38DBFF" stroke-width="0.907143" stroke-dasharray="0.91 5.44"/>
            <path opacity="0.1" d="M-18.532 183.87L115.687 9.6311L344.325 183.87L210.106 358.109L-18.532 183.87Z" stroke="#38DBFF" stroke-width="0.907143"/>
        </g>
    </g>
    <defs>
        <linearGradient id="paint0_linear_1_1043" x1="150.086" y1="136.59" x2="150.086" y2="231.152" gradientUnits="userSpaceOnUse">
            <stop stop-color="#00E8FF"/>
            <stop offset="1" stop-color="#38DBFF" stop-opacity="0.38"/>
        </linearGradient>
        <linearGradient id="paint1_linear_1_1043" x1="115.069" y1="9.1936" x2="115.069" y2="87.9952" gradientUnits="userSpaceOnUse">
            <stop stop-color="#38DBFF"/>
            <stop offset="1" stop-color="#38DBFF"/>
        </linearGradient>
        <linearGradient id="paint2_linear_1_1043" x1="115.069" y1="9.1936" x2="115.069" y2="87.9952" gradientUnits="userSpaceOnUse">
            <stop stop-color="#38DBFF"/>
            <stop offset="1" stop-color="#38DBFF"/>
        </linearGradient>
        <linearGradient id="paint3_linear_1_1043" x1="-nan" y1="-nan" x2="-nan" y2="-nan" gradientUnits="userSpaceOnUse">
            <stop stop-color="white" stop-opacity="0.2"/>
            <stop offset="1" stop-color="white"/>
        </linearGradient>
        <linearGradient id="paint4_linear_1_1043" x1="22.2894" y1="183.87" x2="22.2894" y2="184.836" gradientUnits="userSpaceOnUse">
            <stop stop-color="#38DBFF"/>
            <stop offset="1" stop-color="#38DBFF"/>
        </linearGradient>
        <linearGradient id="paint5_linear_1_1043" x1="303.504" y1="183.87" x2="303.504" y2="184.836" gradientUnits="userSpaceOnUse">
            <stop stop-color="#38DBFF"/>
            <stop offset="1" stop-color="#38DBFF"/>
        </linearGradient>
        <linearGradient id="paint6_linear_1_1043" x1="-nan" y1="-nan" x2="-nan" y2="-nan" gradientUnits="userSpaceOnUse">
            <stop stop-color="white" stop-opacity="0.2"/>
            <stop offset="1" stop-color="white"/>
        </linearGradient>
        <clipPath id="clip0_1_1043">
            <rect width="335.643" height="381" fill="white" transform="matrix(-1 0 0 1 330.643 0)"/>
        </clipPath>
        <clipPath id="clip1_1_1043">
            <rect width="381" height="381" fill="white" transform="matrix(-1 0 0.261515 0.965199 303.577 0)"/>
        </clipPath>
    </defs>
</svg>
