<svg width="298" height="372" viewBox="0 0 298 372" fill="none"
    xmlns="http://www.w3.org/2000/svg">
    <g clip-path="url(#clip0_1_1084)">
        <path opacity="0.44" d="M-50.9208 202.235C-21.2355 96.1281 92.1485 10.1118 202.329 10.1118C312.51 10.1118 377.765 96.1281 348.079 202.235C318.394 308.341 205.01 394.357 94.829 394.357C-15.3518 394.357 -80.6063 308.341 -50.9208 202.235Z" stroke="url(#paint0_linear_1_1084)"/>
        <path opacity="0.3" d="M358.379 202.235C389.597 90.6499 320.974 0.192627 205.104 0.192627C89.235 0.192627 -30.0029 90.6499 -61.2209 202.235C-92.4388 313.819 -23.8154 404.276 92.054 404.276C207.923 404.276 327.161 313.819 358.379 202.235Z" stroke="url(#paint1_linear_1_1084)" stroke-width="0.4"/>
        <path opacity="0.9" d="M248.079 202.234C262.885 149.314 230.339 106.414 175.387 106.414C120.435 106.414 63.8846 149.314 49.0792 202.234C34.2737 255.155 66.8191 298.055 121.771 298.055C176.724 298.055 233.274 255.155 248.079 202.234Z" stroke="#FF8AED"/>
        <path opacity="0.2" d="M258.079 202.235C274.373 143.996 238.556 96.7837 178.081 96.7837C117.606 96.7837 55.3726 143.996 39.0791 202.235C22.7857 260.473 58.602 307.685 119.077 307.685C179.552 307.685 241.786 260.473 258.079 202.235Z" stroke="#FF8AED"/>
        <path d="M157.342 154.621L162.682 150.569L162.786 150.705L163.052 150.504L163.204 150.705L163.384 150.569L166.458 154.621L166.279 154.758L166.791 155.433L166.971 155.297L170.045 159.349L169.865 159.485L170.377 160.16L170.557 160.024L173.632 164.077L173.452 164.213L173.964 164.888L174.144 164.752L177.218 168.804L177.038 168.94L177.551 169.615L177.73 169.479L180.804 173.532L180.624 173.667L181.137 174.343L181.316 174.207L184.391 178.259L184.211 178.395L184.724 179.071L184.903 178.934L187.977 182.987L187.798 183.122L188.31 183.798L188.489 183.662L191.564 187.714L191.385 187.85L191.896 188.526L192.076 188.389L195.15 192.442L194.971 192.578L195.483 193.253L195.662 193.117L198.736 197.169L198.557 197.306L199.069 197.981L199.249 197.845L202.323 201.897L202.143 202.033L202.296 202.235L202.031 202.436L202.134 202.573L196.793 206.624L196.689 206.488L195.799 207.163L195.902 207.3L190.56 211.352L190.458 211.216L189.568 211.891L189.67 212.028L184.329 216.08L184.226 215.943L183.336 216.618L183.439 216.755L178.097 220.807L177.994 220.671L177.104 221.347L177.207 221.482L171.865 225.535L171.763 225.398L170.872 226.074L170.976 226.21L165.634 230.262L165.531 230.126L164.64 230.802L164.744 230.937L159.402 234.99L159.299 234.854L158.408 235.529L158.512 235.665L153.171 239.717L153.068 239.581L152.177 240.257L152.281 240.392L146.939 244.445L146.835 244.309L145.945 244.984L146.049 245.12L140.707 249.172L140.603 249.036L139.714 249.711L139.816 249.848L134.476 253.9L134.372 253.764L134.106 253.965L133.954 253.764L133.774 253.9L130.7 249.848L130.88 249.711L130.367 249.036L130.187 249.172L127.113 245.12L127.293 244.984L126.781 244.309L126.601 244.445L123.527 240.392L123.707 240.257L123.195 239.581L123.015 239.717L119.94 235.665L120.12 235.529L119.607 234.854L119.428 234.99L116.354 230.937L116.534 230.802L116.021 230.126L115.842 230.262L112.768 226.21L112.948 226.074L112.435 225.398L112.255 225.535L109.181 221.482L109.36 221.347L108.848 220.671L108.669 220.807L105.595 216.755L105.774 216.619L105.262 215.943L105.083 216.08L102.008 212.028L102.188 211.891L101.675 211.216L101.496 211.352L98.422 207.3L98.6012 207.163L98.0891 206.488L97.9091 206.624L94.8356 202.573L95.0148 202.436L94.8622 202.235L95.1275 202.033L95.0247 201.897L100.365 197.845L100.469 197.981L101.359 197.306L101.256 197.169L106.598 193.117L106.701 193.253L107.591 192.578L107.488 192.442L112.83 188.389L112.932 188.526L113.822 187.851L113.72 187.714L119.061 183.662L119.164 183.798L120.054 183.122L119.951 182.987L125.293 178.934L125.396 179.071L126.287 178.395L126.183 178.259L131.524 174.207L131.627 174.343L132.518 173.667L132.414 173.532L137.756 169.479L137.859 169.615L138.75 168.94L138.646 168.804L143.988 164.752L144.091 164.888L144.982 164.213L144.878 164.077L150.219 160.024L150.323 160.16L151.213 159.485L151.109 159.349L156.451 155.297L156.555 155.433L157.445 154.758L157.342 154.621Z" fill="url(#paint2_linear_1_1084)" stroke="#FF8AED" stroke-width="0.4" stroke-dasharray="1 6"/>
        <path d="M162.628 150.232C162.702 149.966 162.987 149.75 163.263 149.75C163.539 149.75 163.702 149.966 163.628 150.232C163.554 150.497 163.269 150.713 162.993 150.713C162.717 150.713 162.554 150.497 162.628 150.232Z" fill="#FF8AED"/>
        <path d="M94.4445 202.716C94.1685 202.716 94.0048 202.501 94.0792 202.235C94.1535 201.969 94.4379 201.753 94.7139 201.753C94.9899 201.753 95.1535 201.969 95.0792 202.235C95.0048 202.501 94.7205 202.716 94.4445 202.716Z" fill="#FF8AED"/>
        <path d="M133.53 254.238C133.605 253.972 133.889 253.756 134.165 253.756C134.441 253.756 134.605 253.972 134.53 254.238C134.456 254.504 134.172 254.719 133.896 254.719C133.62 254.719 133.456 254.504 133.53 254.238Z" fill="#FF8AED"/>
        <path d="M202.444 202.716C202.168 202.716 202.005 202.501 202.079 202.235C202.153 201.969 202.438 201.753 202.714 201.753C202.99 201.753 203.153 201.969 203.079 202.235C203.005 202.501 202.72 202.716 202.444 202.716Z" fill="#FF8AED"/>
        <path d="M196.57 14.1015L202.011 9.97414L202.114 10.1104L202.388 9.90259L202.546 10.1104L202.725 9.97424L205.856 14.1015L205.677 14.2377L206.198 14.9256L206.378 14.7893L209.509 18.9166L209.33 19.0528L209.851 19.7407L210.03 19.6045L213.162 23.7317L212.983 23.8679L213.504 24.5558L213.683 24.4196L216.815 28.5469L216.636 28.6831L217.157 29.3708L217.336 29.2347L220.468 33.3619L220.288 33.4982L220.81 34.186L220.989 34.0498L224.12 38.177L223.941 38.3133L224.463 39.0011L224.642 38.8649L227.773 42.9921L227.594 43.1284L228.116 43.8162L228.295 43.68L231.426 47.8072L231.247 47.9435L231.769 48.6313L231.948 48.4951L235.079 52.6223L234.9 52.7585L235.422 53.4464L235.601 53.3102L238.732 57.4374L238.552 57.5736L239.074 58.2615L239.254 58.1253L242.385 62.2525L242.205 62.3887L242.727 63.0766L242.906 62.9404L246.038 67.0676L245.858 67.2038L246.38 67.8917L246.559 67.7555L249.691 71.8828L249.511 72.0189L250.033 72.7068L250.212 72.5706L253.343 76.6979L253.163 76.834L253.686 77.5219L253.865 77.3858L256.996 81.513L256.816 81.6491L257.339 82.337L257.518 82.2009L260.649 86.3281L260.469 86.4643L260.992 87.1521L261.171 87.016L264.302 91.1432L264.122 91.2794L264.645 91.9672L264.824 91.8311L267.955 95.9583L267.775 96.0945L268.297 96.7827L268.477 96.646L271.608 100.774L271.428 100.909L271.95 101.598L272.129 101.461L275.261 105.589L275.081 105.724L275.603 106.413L275.782 106.276L278.914 110.404L278.734 110.54L279.256 111.228L279.435 111.091L282.567 115.219L282.387 115.355L282.909 116.043L283.088 115.906L286.219 120.034L286.039 120.17L286.562 120.858L286.741 120.722L289.872 124.849L289.692 124.985L290.215 125.673L290.394 125.537L293.525 129.664L293.345 129.8L293.868 130.488L294.047 130.352L297.178 134.479L296.998 134.615L297.52 135.304L297.7 135.167L300.831 139.294L300.651 139.43L301.173 140.119L301.353 139.982L304.484 144.109L304.304 144.245L304.826 144.934L305.005 144.797L308.137 148.925L307.957 149.06L308.479 149.749L308.658 149.612L311.79 153.74L311.61 153.875L312.132 154.564L312.311 154.427L315.442 158.555L315.262 158.691L315.785 159.379L315.964 159.242L319.095 163.37L318.915 163.506L319.438 164.194L319.617 164.057L322.748 168.185L322.568 168.321L323.091 169.009L323.27 168.873L326.401 173L326.221 173.136L326.743 173.824L326.923 173.688L330.054 177.815L329.874 177.951L330.396 178.64L330.576 178.503L333.707 182.63L333.527 182.766L334.049 183.455L334.228 183.318L337.36 187.445L337.18 187.581L337.702 188.27L337.881 188.133L341.013 192.261L340.833 192.396L341.355 193.085L341.534 192.948L344.665 197.076L344.485 197.211L345.008 197.9L345.187 197.763L348.318 201.891L348.138 202.027L348.296 202.235L348.022 202.443L348.126 202.578L342.685 206.706L342.582 206.57L341.675 207.258L341.779 207.393L336.338 211.521L336.235 211.385L335.328 212.073L335.432 212.209L329.991 216.336L329.888 216.2L328.981 216.888L329.085 217.024L323.644 221.151L323.541 221.015L322.633 221.703L322.737 221.839L317.297 225.966L317.194 225.831L316.286 226.518L316.39 226.654L310.95 230.781L310.847 230.646L309.939 231.333L310.043 231.469L304.602 235.597L304.499 235.461L303.592 236.148L303.696 236.284L298.255 240.412L298.152 240.276L297.245 240.963L297.349 241.099L291.908 245.227L291.805 245.091L290.898 245.779L291.002 245.914L285.561 250.042L285.458 249.905L284.551 250.594L284.655 250.729L279.214 254.857L279.111 254.72L278.204 255.409L278.308 255.545L272.867 259.672L272.764 259.535L271.857 260.224L271.961 260.36L266.52 264.487L266.417 264.35L265.509 265.039L265.613 265.175L260.173 269.302L260.07 269.166L259.162 269.854L259.266 269.99L253.826 274.117L253.723 273.981L252.815 274.669L252.919 274.805L247.478 278.933L247.376 278.796L246.468 279.484L246.572 279.62L241.131 283.748L241.029 283.611L240.121 284.299L240.225 284.435L234.784 288.563L234.681 288.426L233.774 289.115L233.878 289.25L228.437 293.378L228.334 293.241L227.427 293.93L227.531 294.065L222.09 298.193L221.987 298.056L221.08 298.745L221.184 298.881L215.743 303.008L215.64 302.871L214.732 303.56L214.836 303.696L209.396 307.823L209.293 307.686L208.385 308.375L208.489 308.511L203.049 312.638L202.946 312.502L202.038 313.19L202.142 313.326L196.701 317.453L196.599 317.317L195.691 318.005L195.795 318.141L190.354 322.268L190.252 322.132L189.344 322.82L189.448 322.956L184.007 327.084L183.904 326.947L182.997 327.635L183.101 327.771L177.66 331.899L177.557 331.762L176.65 332.451L176.754 332.586L171.313 336.714L171.21 336.577L170.303 337.266L170.407 337.401L164.966 341.529L164.863 341.392L163.955 342.081L164.059 342.216L158.619 346.344L158.516 346.207L157.608 346.896L157.712 347.032L152.272 351.159L152.169 351.022L151.261 351.711L151.365 351.847L145.924 355.974L145.822 355.837L144.914 356.526L145.018 356.662L139.577 360.789L139.475 360.653L138.567 361.341L138.671 361.477L133.23 365.604L133.128 365.468L132.22 366.156L132.324 366.292L126.883 370.42L126.78 370.283L125.873 370.971L125.977 371.107L120.536 375.235L120.433 375.098L119.526 375.786L119.63 375.922L114.189 380.05L114.086 379.913L113.179 380.602L113.283 380.737L107.842 384.865L107.739 384.728L106.831 385.417L106.935 385.552L101.495 389.68L101.392 389.543L100.484 390.232L100.588 390.368L95.1475 394.495L95.0448 394.358L94.7706 394.566L94.6128 394.358L94.4335 394.495L91.3023 390.368L91.4813 390.232L90.9599 389.543L90.7806 389.68L87.6494 385.552L87.8284 385.417L87.307 384.728L87.1278 384.865L83.9965 380.737L84.1755 380.602L83.6541 379.913L83.4749 380.05L80.3436 375.922L80.5226 375.786L80.0013 375.098L79.822 375.235L76.6907 371.107L76.8697 370.971L76.3484 370.283L76.1691 370.42L73.0379 366.292L73.2169 366.156L72.6955 365.468L72.5162 365.604L69.385 361.477L69.564 361.341L69.0426 360.653L68.8634 360.789L65.7321 356.662L65.9111 356.526L65.3897 355.837L65.2105 355.974L62.0792 351.847L62.2582 351.711L61.7369 351.022L61.5576 351.159L58.4263 347.032L58.6063 346.896L58.084 346.207L57.9047 346.344L54.7735 342.216L54.9535 342.081L54.4311 341.392L54.2518 341.529L51.1206 337.401L51.3006 337.266L50.7782 336.577L50.599 336.714L47.4677 332.586L47.6477 332.451L47.1253 331.762L46.9461 331.899L43.8148 327.771L43.9948 327.635L43.4725 326.947L43.2932 327.084L40.162 322.956L40.3419 322.82L39.8196 322.132L39.6403 322.268L36.5091 318.141L36.6891 318.005L36.1667 317.317L35.9875 317.453L32.8562 313.326L33.0362 313.19L32.5138 312.502L32.3346 312.638L29.2033 308.511L29.3833 308.375L28.8609 307.686L28.6817 307.823L25.5504 303.696L25.7304 303.56L25.2081 302.871L25.0288 303.008L21.8976 298.881L22.0776 298.745L21.5552 298.056L21.3759 298.193L18.2447 294.065L18.4247 293.93L17.9023 293.241L17.7231 293.378L14.5918 289.25L14.7718 289.115L14.2497 288.426L14.0701 288.563L10.939 284.435L11.1185 284.299L10.5969 283.611L10.4172 283.748L7.28615 279.62L7.46563 279.484L6.94397 278.796L6.76431 278.933L3.63327 274.805L3.81275 274.669L3.29109 273.981L3.11143 274.117L-0.0196092 269.99L0.159872 269.854L-0.361785 269.166L-0.541446 269.302L-3.67249 265.175L-3.49301 265.039L-4.01466 264.35L-4.19433 264.487L-7.32537 260.36L-7.14589 260.224L-7.66754 259.535L-7.84721 259.672L-10.9782 255.545L-10.7988 255.409L-11.3204 254.72L-11.5001 254.857L-14.6311 250.729L-14.4516 250.594L-14.9733 249.905L-15.153 250.042L-18.284 245.914L-18.1045 245.779L-18.6262 245.09L-18.8058 245.227L-21.9369 241.099L-21.7574 240.963L-22.2791 240.275L-22.4587 240.412L-25.5898 236.284L-25.4103 236.148L-25.9319 235.46L-26.1116 235.597L-29.2426 231.469L-29.0632 231.333L-29.5848 230.645L-29.7645 230.781L-32.8955 226.654L-32.716 226.518L-33.2377 225.83L-33.4174 225.966L-36.5484 221.839L-36.3689 221.703L-36.8906 221.014L-37.0702 221.151L-40.2013 217.024L-40.0218 216.888L-40.5435 216.199L-40.7231 216.336L-43.8542 212.209L-43.6747 212.073L-44.1963 211.384L-44.376 211.521L-47.507 207.393L-47.3276 207.258L-47.8492 206.569L-48.0289 206.706L-51.1599 202.578L-50.9804 202.443L-51.138 202.235L-50.864 202.027L-50.9675 201.891L-45.527 197.763L-45.4235 197.899L-44.5168 197.211L-44.6203 197.076L-39.1799 192.948L-39.0764 193.084L-38.1697 192.396L-38.2732 192.261L-32.8328 188.133L-32.7293 188.269L-31.8226 187.581L-31.9261 187.445L-26.4855 183.318L-26.3821 183.454L-25.4756 182.766L-25.579 182.63L-20.1385 178.503L-20.035 178.639L-19.1284 177.951L-19.2319 177.815L-13.7914 173.688L-13.6879 173.824L-12.7813 173.136L-12.8847 173L-7.44428 168.873L-7.34077 169.008L-6.4342 168.321L-6.53762 168.185L-1.09716 164.057L-0.993651 164.193L-0.0870823 163.506L-0.190495 163.37L5.24996 159.242L5.35337 159.378L6.26004 158.691L6.15663 158.555L11.5971 154.427L11.7002 154.564L12.6072 153.875L12.5037 153.74L17.9442 149.612L18.0473 149.749L18.9543 149.06L18.8509 148.925L24.2913 144.797L24.3945 144.934L25.3014 144.245L25.198 144.109L30.6384 139.982L30.7416 140.119L31.6485 139.43L31.5451 139.294L36.9856 135.167L37.0887 135.304L37.9956 134.615L37.8922 134.479L43.3327 130.352L43.4358 130.488L44.3428 129.8L44.2393 129.664L49.6798 125.537L49.7829 125.673L50.6899 124.985L50.5865 124.849L56.0269 120.722L56.1301 120.858L57.037 120.17L56.9336 120.034L62.374 115.906L62.4772 116.043L63.3845 115.355L63.2805 115.219L68.7213 111.091L68.824 111.228L69.7316 110.54L69.6276 110.404L75.0684 106.276L75.1711 106.413L76.0788 105.724L75.9748 105.589L81.4155 101.461L81.5182 101.598L82.4259 100.909L82.3219 100.774L87.7626 96.646L87.8654 96.7827L88.7729 96.0945L88.669 95.9583L94.1097 91.831L94.2126 91.9672L95.12 91.2794L95.0161 91.1432L100.457 87.0159L100.56 87.1521L101.467 86.4643L101.363 86.3281L106.804 82.2008L106.907 82.337L107.814 81.6491L107.71 81.513L113.151 77.3857L113.254 77.5219L114.161 76.834L114.057 76.6979L119.498 72.5705L119.601 72.7068L120.509 72.0189L120.405 71.8828L125.845 67.7554L125.948 67.8917L126.856 67.2038L126.752 67.0676L132.192 62.9403L132.295 63.0766L133.203 62.3887L133.099 62.2525L138.54 58.1252L138.642 58.2615L139.55 57.5736L139.446 57.4374L144.887 53.3101L144.99 53.4464L145.897 52.7585L145.793 52.6223L151.234 48.495L151.337 48.6313L152.244 47.9434L152.14 47.8072L157.581 43.6799L157.684 43.8162L158.591 43.1283L158.487 42.9921L163.928 38.8648L164.031 39.0011L164.938 38.3132L164.834 38.177L170.275 34.0497L170.378 34.186L171.285 33.4981L171.182 33.3619L176.622 29.2346L176.725 29.3708L177.633 28.683L177.529 28.5468L182.969 24.4195L183.072 24.5557L183.98 23.8678L183.876 23.7317L189.317 19.6044L189.419 19.7406L190.327 19.0527L190.223 18.9166L195.664 14.7892L195.767 14.9255L196.674 14.2376L196.57 14.1015Z" stroke="#FF8AED" stroke-width="0.4" stroke-dasharray="1 6"/>
        <path d="M43.491 72.3659L45.124 66.5292H45.324L45.4062 66.2353H45.7114L45.7653 66.0427H51.8262L51.7723 66.2354L52.7824 66.2353L52.8363 66.0428H58.8972L58.8433 66.2353H59.8535L59.9074 66.0427H65.9683L65.9144 66.2353L66.9246 66.2354L66.9785 66.0427L73.0394 66.0428L72.9855 66.2353H73.9956L74.0495 66.0427H80.1105L80.0566 66.2353H81.0666L81.1205 66.0427H87.1815L87.1276 66.2354H88.1376L88.1915 66.0427L94.2525 66.0428L94.1986 66.2353H95.2086L95.2625 66.0427H101.323L101.27 66.2353H102.28L102.333 66.0427H108.394L108.341 66.2353L109.351 66.2354L109.404 66.0427L115.465 66.0428L115.412 66.2354L116.422 66.2353L116.475 66.0428L122.536 66.0427L122.483 66.2353H123.493L123.546 66.0427H129.607L129.554 66.2353L130.565 66.2354L130.618 66.0427H136.678L136.625 66.2353H137.636L137.689 66.0427H143.75L143.697 66.2354L144.707 66.2353L144.76 66.0427L150.821 66.0428L150.768 66.2354L151.778 66.2353L151.831 66.0427L157.892 66.0428L157.839 66.2354L158.849 66.2353L158.902 66.0427H164.963L164.91 66.2353L165.92 66.2354L165.973 66.0427H172.034L171.981 66.2354H172.991L173.044 66.0428H179.105L179.052 66.2354H180.062L180.115 66.0428L186.176 66.0427L186.123 66.2353H187.133L187.186 66.0427H193.247L193.194 66.2353H194.204L194.257 66.0427H200.318L200.265 66.2353H201.275L201.328 66.0427H207.389L207.336 66.2353H208.346L208.399 66.0427H214.46L214.407 66.2353H215.417L215.47 66.0427H221.531L221.478 66.2353H222.488L222.541 66.0427H228.602L228.549 66.2353H229.559L229.612 66.0427H235.673L235.62 66.2353H236.63L236.683 66.0427H242.744L242.691 66.2353H243.702L243.755 66.0427H249.815L249.762 66.2353H250.773L250.826 66.0427H256.887L256.834 66.2353H257.844L257.897 66.0427H263.958L263.905 66.2353H264.915L264.968 66.0427H271.029L270.976 66.2353H271.986L272.039 66.0427H278.1L278.047 66.2353H279.057L279.11 66.0427H285.171L285.118 66.2353H286.128L286.181 66.0427H292.242L292.189 66.2353H293.199L293.252 66.0427H299.313L299.26 66.2353H300.27L300.323 66.0427H306.384L306.331 66.2353H307.341L307.394 66.0427H313.455L313.402 66.2353H314.412L314.465 66.0427H320.526L320.473 66.2353H321.483L321.537 66.0427H327.597L327.544 66.2353H327.849L327.766 66.5292H327.966L326.333 72.3661H326.133L325.861 73.3389H326.061L324.428 79.1756H324.228L323.956 80.1485H324.156L322.523 85.9853H322.323L322.051 86.9581H322.251L320.618 92.7949H320.418L320.146 93.7676H320.346L318.713 99.6044H318.513L318.241 100.577H318.441L316.808 106.414H316.608L316.336 107.387H316.536L314.903 113.223H314.703L314.431 114.196H314.631L312.998 120.033H312.798L312.526 121.006H312.726L311.093 126.843H310.893L310.62 127.815H310.82L309.187 133.652H308.987L308.715 134.625H308.915L307.282 140.462H307.082L306.81 141.435H307.01L305.377 147.271H305.177L304.905 148.245H305.105L303.472 154.082H303.272L303 155.054H303.2L301.567 160.891H301.367L301.095 161.864H301.295L299.662 167.701H299.462L299.19 168.673H299.39L297.757 174.51H297.557L297.284 175.483H297.484L295.852 181.32H295.651L295.379 182.292H295.579L293.946 188.129H293.746L293.474 189.102H293.674L292.041 194.939H291.841L291.569 195.911H291.769L290.136 201.748H289.936L289.664 202.721H289.864L288.231 208.558H288.031L287.759 209.53H287.959L286.326 215.367H286.126L285.854 216.34H286.054L284.421 222.177H284.221L283.949 223.15H284.149L282.516 228.986H282.316L282.044 229.959H282.244L280.611 235.796H280.411L280.139 236.769H280.339L278.706 242.605H278.506L278.233 243.578H278.434L276.801 249.415H276.601L276.328 250.389H276.528L274.895 256.224H274.695L274.423 257.198H274.623L272.99 263.035H272.79L272.518 264.008H272.718L271.085 269.844H270.885L270.613 270.817H270.813L269.18 276.654H268.98L268.708 277.627H268.908L267.275 283.464H267.075L266.803 284.436H267.003L265.37 290.273H265.17L264.898 291.246H265.098L263.465 297.083H263.265L262.992 298.055H263.192L261.559 303.892H261.359L261.087 304.865H261.287L259.654 310.702H259.454L259.182 311.674H259.382L257.749 317.511H257.549L257.277 318.484H257.477L255.844 324.321H255.644L255.372 325.293H255.572L253.939 331.13H253.739L253.467 332.103H253.667L252.034 337.94H251.834L251.752 338.233H251.447L251.393 338.426H245.332L245.386 338.233H244.376L244.322 338.426H238.261L238.315 338.233H237.305L237.251 338.426H231.19L231.244 338.233H230.234L230.18 338.426H224.119L224.173 338.233H223.163L223.109 338.426H217.048L217.102 338.233H216.092L216.038 338.426H209.977L210.031 338.233H209.021L208.967 338.426H202.906L202.96 338.233H201.95L201.896 338.426H195.835L195.889 338.233H194.879L194.825 338.426H188.764L188.818 338.233H187.808L187.754 338.426H181.693L181.747 338.233H180.736L180.682 338.426H174.622L174.676 338.233H173.665L173.611 338.426H167.55L167.604 338.233H166.594L166.54 338.426H160.479L160.533 338.233H159.523L159.469 338.426H153.408L153.462 338.233H152.452L152.398 338.426H146.337L146.391 338.233H145.381L145.327 338.426H139.266L139.32 338.233H138.31L138.256 338.426H132.195L132.249 338.233H131.239L131.185 338.426H125.124L125.178 338.233H124.168L124.114 338.426H118.053L118.107 338.233H117.097L117.043 338.426H110.982L111.036 338.233H110.026L109.972 338.426H103.911L103.965 338.233H102.955L102.901 338.426H96.8399L96.8938 338.233H95.8838L95.8299 338.426H89.7689L89.8228 338.233H88.8128L88.7589 338.426H82.6979L82.7518 338.233H81.7418L81.6879 338.426H75.6269L75.6808 338.233H74.6708L74.6169 338.426H68.5559L68.6098 338.233H67.5988L67.5449 338.426H61.4849L61.5388 338.233H60.5278L60.4739 338.426H54.4129L54.4668 338.233H53.4568L53.4029 338.426H47.3419L47.3958 338.233H46.3858L46.3319 338.426H40.2709L40.3248 338.233H39.3148L39.2609 338.426H33.1999L33.2538 338.233H32.2438L32.1899 338.426H26.1289L26.1828 338.233H25.1728L25.1189 338.426H19.0579L19.1118 338.233H18.1018L18.0479 338.426H11.9869L12.0408 338.233H11.0308L10.9769 338.426H4.91593L4.96982 338.233H3.95981L3.90593 338.426H-2.15518L-2.10129 338.233H-3.11138L-3.16527 338.426H-9.22618L-9.17229 338.233H-10.1825L-10.2364 338.426H-16.2973L-16.2434 338.233H-17.2536L-17.3075 338.426H-23.3684L-23.3145 338.233H-24.3246L-24.3785 338.426H-30.4394L-30.3855 338.233H-30.6906L-30.6084 337.94H-30.8084L-29.1754 332.103H-28.9754L-28.7033 331.13H-28.9033L-27.2703 325.293H-27.0703L-26.7982 324.321H-26.9982L-25.3652 318.484H-25.1652L-24.8931 317.511H-25.0931L-23.4601 311.674H-23.2601L-22.988 310.702H-23.188L-21.5551 304.865H-21.355L-21.0829 303.892H-21.2829L-19.6499 298.055H-19.4499L-19.1778 297.083H-19.3778L-17.7448 291.246H-17.5448L-17.2727 290.273H-17.4727L-15.8398 284.436H-15.6397L-15.3676 283.464H-15.5676L-13.9347 277.627H-13.7346L-13.4625 276.654H-13.6625L-12.0296 270.817H-11.8296L-11.5574 269.844H-11.7574L-10.1245 264.008H-9.92445L-9.65207 263.034H-9.85207L-8.21936 257.198H-8.01936L-7.74697 256.224H-7.94697L-6.314 250.388H-6.11399L-5.84187 249.415H-6.04188L-4.4089 243.578H-4.20889L-3.93678 242.605H-4.13678L-2.5038 236.769H-2.3038L-2.03168 235.796H-2.23168L-0.598703 229.959H-0.398698L-0.126582 228.986H-0.326586L1.30639 223.15H1.5064L1.77852 222.177H1.57852L3.21149 216.34H3.4115L3.68362 215.367H3.48361L5.11659 209.53H5.31659L5.58871 208.558H5.38871L7.02169 202.721H7.22169L7.49381 201.748H7.29381L8.92678 195.911H9.12679L9.39891 194.939H9.19891L10.8319 189.102H11.0319L11.304 188.129H11.104L12.737 182.292H12.937L13.2091 181.32H13.0091L14.6421 175.483H14.8421L15.1142 174.51H14.9142L16.5472 168.673H16.7472L17.0193 167.701H16.8193L18.4523 161.864H18.6523L18.9244 160.891H18.7244L20.3574 155.054H20.5574L20.8298 154.081H20.6298L22.2625 148.245H22.4625L22.7349 147.271H22.5349L24.1678 141.434H24.3678L24.64 140.462H24.44L26.0729 134.625H26.2729L26.5451 133.652H26.3451L27.978 127.815H28.178L28.4502 126.843H28.2502L29.8831 121.006H30.0831L30.3553 120.033H30.1552L31.7882 114.196H31.9882L32.2604 113.223H32.0603L33.6933 107.387H33.8933L34.1654 106.414H33.9654L35.5984 100.577H35.7984L36.0705 99.6044H35.8705L37.5035 93.7675H37.7035L37.9757 92.7947H37.7757L39.4086 86.9579H39.6087L39.8808 85.9852H39.6808L41.3137 80.1484H41.5137L41.7859 79.1755H41.5859L43.2189 73.3388H43.4189L43.691 72.3659H43.491Z" stroke="url(#paint3_linear_1_1084)" stroke-width="0.4" stroke-dasharray="1 6"/>
        <path opacity="0.5" d="M228.579 202.235C240.483 159.686 214.316 125.193 170.133 125.193C125.95 125.193 80.4831 159.686 68.5792 202.235C56.6752 244.784 82.8424 279.276 127.025 279.276C171.208 279.276 216.675 244.784 228.579 202.235Z" stroke="#FF8AED" stroke-width="40" stroke-dasharray="0.4 32"/>
    </g>
    <defs>
        <linearGradient id="paint0_linear_1_1084" x1="12.5001" y1="-4.99999" x2="190.917" y2="109.084" gradientUnits="userSpaceOnUse">
            <stop stop-color="#FF8AED"/>
            <stop offset="1" stop-color="#FF8AED" stop-opacity="0"/>
        </linearGradient>
        <linearGradient id="paint1_linear_1_1084" x1="35.5001" y1="9" x2="195.292" y2="142.295" gradientUnits="userSpaceOnUse">
            <stop stop-color="#FF8AED"/>
            <stop offset="1" stop-color="#FF8AED" stop-opacity="0"/>
        </linearGradient>
        <linearGradient id="paint2_linear_1_1084" x1="163.128" y1="150.231" x2="163.128" y2="254.238" gradientUnits="userSpaceOnUse">
            <stop stop-color="#F00AFE"/>
            <stop offset="1" stop-color="#F00AFE" stop-opacity="0.43"/>
        </linearGradient>
        <linearGradient id="paint3_linear_1_1084" x1="186.681" y1="66.0427" x2="356.565" y2="303.972" gradientUnits="userSpaceOnUse">
            <stop stop-color="#FF8AED"/>
            <stop offset="1" stop-color="#FF8AED" stop-opacity="0"/>
        </linearGradient>
        <clipPath id="clip0_1_1084">
            <rect width="420" height="420" fill="white" transform="matrix(1 0 -0.269424 0.963022 -4.8418 0)"/>
        </clipPath>
    </defs>
</svg>
